<svg width="217" height="185" viewBox="0 0 217 185" fill="none" xmlns="http://www.w3.org/2000/svg">
	<g opacity="0.04">
		<path d="M115.281 117.188V56.1562H88.1562V69.7188H101.719V117.188H81.375V130.75H135.625V117.188H115.281Z" fill="#606060"/>
		<path d="M108.5 15.4688C106.488 15.4688 104.522 16.0653 102.849 17.183C101.176 18.3007 99.8723 19.8894 99.1024 21.748C98.3325 23.6067 98.1311 25.6519 98.5236 27.6251C98.9161 29.5982 99.8848 31.4107 101.307 32.8332C102.73 34.2558 104.542 35.2246 106.516 35.6171C108.489 36.0095 110.534 35.8081 112.393 35.0382C114.251 34.2683 115.84 32.9646 116.958 31.2918C118.075 29.6191 118.672 27.6524 118.672 25.6406C118.672 22.9429 117.6 20.3556 115.693 18.448C113.785 16.5404 111.198 15.4688 108.5 15.4688Z" fill="#606060"/>
		<path d="M108.5 171.438C89.7232 171.438 71.368 165.87 55.7556 155.438C40.1432 145.006 27.9748 130.179 20.7892 112.831C13.6036 95.4835 11.7236 76.3947 15.3867 57.9787C19.0499 39.5626 28.0918 22.6463 41.3691 9.36909C54.6463 -3.90816 71.5626 -12.9501 89.9787 -16.6133C108.395 -20.2764 127.483 -18.3964 144.831 -11.2108C162.179 -4.02518 177.006 8.1432 187.438 23.7556C197.87 39.368 203.438 57.7232 203.438 76.5001C203.438 101.679 193.435 125.827 175.631 143.631C157.827 161.435 133.679 171.438 108.5 171.438ZM108.5 -4.87496C92.4056 -4.87496 76.6726 -0.102396 63.2905 8.8392C49.9085 17.7808 39.4784 30.4898 33.3193 45.3592C27.1603 60.2285 25.5488 76.5903 28.6886 92.3755C31.8285 108.161 39.5787 122.66 50.9592 134.041C62.3397 145.421 76.8394 153.172 92.6246 156.311C108.41 159.451 124.772 157.84 139.641 151.681C154.51 145.522 167.219 135.092 176.161 121.71C185.102 108.328 189.875 92.5945 189.875 76.5001C189.875 54.9181 181.302 34.22 166.041 18.9592C150.78 3.69846 130.082 -4.87496 108.5 -4.87496Z" fill="#606060"/>
	</g>
</svg>