<svg width="16" height="16" viewBox="0 0 16 16" fill="none" xmlns="http://www.w3.org/2000/svg">
  <path d="M15.8227 13.1129 9.156 1.55736C8.92533 1.15825 8.49378.888916 8 .888916c-.49378 0-.92533.269334-1.156.668444L.177333 13.1129C.0648889 13.3085 0 13.5356 0 13.7778c0 .736.597333 1.3333 1.33333 1.3333H14.6667c.736 0 1.3333-.5973 1.3333-1.3333 0-.2422-.0644-.4693-.1773-.6649Zm-14.49026.6662L7.99867 2.22225H8l.00089.00133L14.6667 13.7778l-13.33426.0013ZM8 10.6667c-.49067 0-.88889.3982-.88889.8889 0 .4911.39778.8889.88889.8889.49111 0 .88889-.3983.88889-.8889 0-.4907-.39778-.8889-.88889-.8889Zm-.88889-4.00001c0 .05067.00445.10089.01245.14934l.43777 2.59202c.036.2102.21867.36976.43867.36976s.40267-.15956.43822-.36978L8.876 6.816c.00844-.04842.01289-.09864.01289-.14931 0-.49066-.39778-.88889-.88889-.88889-.49067 0-.88889.39823-.88889.88889Z" fill="#d8695f" />
</svg>