<svg width="16" height="16" viewBox="0 0 25 25" fill="none" xmlns="http://www.w3.org/2000/svg">
  <path d="M22.9167 0H2.08333C0.9375 0 0 0.9375 0 2.08333V22.9167C0 24.0625 0.9375 25 2.08333 25H22.9167C24.0625 25 25 24.0625 25 22.9167V2.08333C25 0.9375 24.0625 0 22.9167 0ZM19.6667 10.2917L11.3333 18.625C11.0833 18.875 10.75 19 10.4167 19C10.0833 19 9.75 18.875 9.5 18.625L5.33333 14.4583C4.83333 13.9583 4.83333 13.125 5.33333 12.625C5.83333 12.125 6.66667 12.125 7.16667 12.625L10.4167 15.875L17.8333 8.45833C18.3333 7.95833 19.1667 7.95833 19.6667 8.45833C20.1875 8.95833 20.1875 9.79167 19.6667 10.2917Z" fill="#868446" />
</svg>