<svg height="16" width="16" viewBox="0 0 512 512" xmlns="http://www.w3.org/2000/svg">
  <g fill="#707070">
    <path d="M256 127.996c-7.074 0-12.8 5.726-12.8 12.8v204.8c0 7.074 5.726 12.8 12.8 12.8 7.074 0 12.8-5.726 12.8-12.8v-204.8c0-7.074-5.726-12.8-12.8-12.8z" />
    <path d="M508.57 442.731 278.17 43.669c-4.574-7.919-13.022-12.8-22.17-12.8s-17.596 4.881-22.17 12.8L3.43 442.731c-4.574 7.919-4.574 17.681 0 25.6 4.574 7.919 13.022 12.8 22.17 12.8h460.8c9.148 0 17.596-4.881 22.17-12.8s4.573-17.681 0-25.6zM25.605 455.522 256 56.461l230.4 399.061H25.605z" />
    <circle cx="256" cy="409.596" r="25.6" />
  </g>
</svg>